# xmcd
#
# Track frame offsets:
#	150
#	11610
#	28722
#	48222
#	67695
#	79750
#	97817
#	116197
#	133525
#	147085
#	169035
#	183380
#	199415
#	220182
#	236017
#
# Disc length: 3463 seconds
#
# Revision: 7
# Processed by: cddbd v1.4PL0 Copyright (c) Steve Scherf et al.
# Submitted via: CDmax 1.8
#
DISCID=c70d850f
DTITLE=Travis Tritt - Greatest Hits From The Beginning
DYEAR=1995
DGENRE=Country
TTITLE0=Here's A Quarter
TTITLE1=Anymore
TTITLE2=Put Some Drive In Your Country
TTITLE3=Foolish Pride
TTITLE4=The Wiskey Ain't Workin'
TTITLE5=Help Me Hold On
TTITLE6=I'm Gonna Be Somebody
TTITLE7=Only You
TTITLE8=T-R-O-U-B-L-E
TTITLE9=Tell Me I Was Dreaming
TTITLE10=Country Club
TTITLE11=Can I Trust You With My Heart
TTITLE12=Sometimes She Forgets
TTITLE13=Ten Feet Tall And Bullet Proof
TTITLE14=Drift Off To Dream
EXTD=YEAR: 1995 ID3G:   2
EXTT0=
EXTT1=
EXTT2=
EXTT3=
EXTT4=w/ Marty Stuart
EXTT5=
EXTT6=
EXTT7=
EXTT8=
EXTT9=
EXTT10=
EXTT11=
EXTT12=
EXTT13=
EXTT14=
PLAYORDER=
